<svg width="21" height="21" viewBox="0 0 21 21" fill="none" xmlns="http://www.w3.org/2000/svg">
<mask id="path-1-inside-1_167_980" fill="white">
<path fill-rule="evenodd" clip-rule="evenodd" d="M11.025 0H0V10.5V21H21L16.0095 10.4937C18.7885 10.3584 21 8.06248 21 5.25C21 2.3505 18.6495 0 15.75 0H11.025Z"/>
</mask>
<path d="M0 0V-3C-1.65685 -3 -3 -1.65685 -3 0L0 0ZM0 21H-3C-3 22.6569 -1.65685 24 0 24L0 21ZM21 21V24C22.029 24 22.9861 23.4727 23.5359 22.6029C24.0857 21.7331 24.1513 20.6423 23.7098 19.7128L21 21ZM16.0095 10.4937L15.8636 7.49725C14.8618 7.54601 13.9505 8.09228 13.4354 8.95295C12.9202 9.81362 12.8693 10.8748 13.2997 11.7809L16.0095 10.4937ZM0 3H11.025V-3H0V3ZM3 10.5V0H-3V10.5H3ZM3 21V10.5H-3V21H3ZM21 18H0V24H21V18ZM13.2997 11.7809L18.2902 22.2872L23.7098 19.7128L18.7193 9.20653L13.2997 11.7809ZM18 5.25C18 6.45448 17.0522 7.43939 15.8636 7.49725L16.1554 13.4902C20.5247 13.2775 24 9.67048 24 5.25H18ZM15.75 3C16.9926 3 18 4.00736 18 5.25H24C24 0.69365 20.3063 -3 15.75 -3V3ZM11.025 3H15.75V-3H11.025V3Z" fill="#969696" mask="url(#path-1-inside-1_167_980)"/>
</svg>
