<svg width="40" height="47" viewBox="0 0 40 47" fill="none" xmlns="http://www.w3.org/2000/svg">
<mask id="path-1-inside-1_26_276" fill="white">
<path fill-rule="evenodd" clip-rule="evenodd" d="M27.0507 27.139C30.0501 24.4122 32 19.9907 32 15C32 6.71573 26.6274 0 20 0C13.3726 0 8 6.71573 8 15C8 19.9907 9.94986 24.4122 12.9493 27.139C5.63521 28.1389 0 34.4114 0 42C0 44.7614 2.23858 47 5 47H35C37.7614 47 40 44.7614 40 42C40 34.4114 34.3648 28.1389 27.0507 27.139Z"/>
</mask>
<path d="M27.0507 27.139L25.0327 24.9192C24.1704 25.7031 23.8401 26.9154 24.1856 28.0284C24.5311 29.1413 25.4898 29.9535 26.6444 30.1114L27.0507 27.139ZM12.9493 27.139L13.3556 30.1114C14.5102 29.9535 15.4689 29.1413 15.8144 28.0284C16.1599 26.9154 15.8296 25.7031 14.9673 24.9192L12.9493 27.139ZM29 15C29 19.243 27.338 22.8234 25.0327 24.9192L29.0688 29.3588C32.7622 26.001 35 20.7385 35 15H29ZM20 3C24.3805 3 29 7.71329 29 15H35C35 5.71817 28.8744 -3 20 -3V3ZM11 15C11 7.71329 15.6195 3 20 3V-3C11.1256 -3 5 5.71817 5 15H11ZM14.9673 24.9192C12.662 22.8234 11 19.243 11 15H5C5 20.7385 7.23776 26.001 10.9312 29.3588L14.9673 24.9192ZM3 42C3 35.9316 7.50729 30.9109 13.3556 30.1114L12.5429 24.1667C3.76313 25.367 -3 32.8912 -3 42H3ZM5 44C3.89543 44 3 43.1046 3 42H-3C-3 46.4183 0.581723 50 5 50V44ZM35 44H5V50H35V44ZM37 42C37 43.1046 36.1046 44 35 44V50C39.4183 50 43 46.4183 43 42H37ZM26.6444 30.1114C32.4927 30.9109 37 35.9316 37 42H43C43 32.8912 36.2369 25.367 27.4571 24.1667L26.6444 30.1114Z" fill="black" mask="url(#path-1-inside-1_26_276)"/>
</svg>
