<svg width="40" height="50" viewBox="0 0 40 50" fill="none" xmlns="http://www.w3.org/2000/svg">
<path d="M37.5 17.5C37.5 14.7386 35.2614 12.5 32.5 12.5H7.5C5.64929 12.5 4.03343 13.5055 3.16891 15H2.5V10C2.5 5.85786 5.85786 2.5 10 2.5H30C34.1421 2.5 37.5 5.85786 37.5 10V17.5ZM37.5 17.5C37.5 20.2614 35.2614 22.5 32.5 22.5H7.5C5.64929 22.5 4.03343 21.4945 3.16891 20H2.5V30H3.16891C4.03343 28.5055 5.64929 27.5 7.5 27.5H32.5C35.2614 27.5 37.5 29.7386 37.5 32.5M37.5 17.5V32.5M37.5 32.5C37.5 35.2614 35.2614 37.5 32.5 37.5H7.5C5.64929 37.5 4.03343 36.4945 3.16891 35H2.5V40C2.5 44.1421 5.85786 47.5 10 47.5H30C34.1421 47.5 37.5 44.1421 37.5 40V32.5Z" fill="black" stroke="black" stroke-width="5"/>
</svg>
