<svg width="41" height="50" viewBox="0 0 41 50" fill="none" xmlns="http://www.w3.org/2000/svg">
<path fill-rule="evenodd" clip-rule="evenodd" d="M29.1729 30.5384C32.7495 27.3342 35 22.6799 35 17.5C35 7.83502 27.165 0 17.5 0C7.83502 0 0 7.83502 0 17.5C0 27.165 7.83502 35 17.5 35C20.1881 35 22.7346 34.3939 25.0104 33.311L35.4692 48.2476C36.2611 49.3786 37.82 49.6535 38.951 48.8616C40.082 48.0696 40.3569 46.5107 39.5649 45.3797L29.1729 30.5384ZM17.5 29.971C10.6124 29.971 5.02898 24.3876 5.02898 17.5C5.02898 10.6124 10.6124 5.02898 17.5 5.02898C24.3876 5.02898 29.971 10.6124 29.971 17.5C29.971 24.3876 24.3876 29.971 17.5 29.971Z" fill="black"/>
</svg>
