<svg width="40" height="50" viewBox="0 0 40 50" fill="none" xmlns="http://www.w3.org/2000/svg">
<path fill-rule="evenodd" clip-rule="evenodd" d="M14 3H26C27.1046 3 28 3.89543 28 5V10H12V5C12 3.89543 12.8954 3 14 3ZM9 5C9 2.23858 11.2386 0 14 0H26C28.7614 0 31 2.23858 31 5V10V10.0494C36.0533 10.5511 40 14.8147 40 20V40C40 45.5229 35.5228 50 30 50H10C4.47715 50 0 45.5229 0 40V20C0 14.8147 3.94668 10.5511 9 10.0494V10V5ZM9 16C9 14.8954 9.89543 14 11 14C12.1046 14 13 14.8954 13 16V44C13 45.1046 12.1046 46 11 46C9.89543 46 9 45.1046 9 44V16ZM27 16C27 14.8954 27.8954 14 29 14C30.1046 14 31 14.8954 31 16V44C31 45.1046 30.1046 46 29 46C27.8954 46 27 45.1046 27 44V16Z" fill="black"/>
</svg>
