<svg width="305" height="50" viewBox="0 0 305 50" fill="none" xmlns="http://www.w3.org/2000/svg">
<rect x="0.5" y="0.5" width="304" height="49" rx="24.5" stroke="#D8D8D8"/>
<path d="M89.7227 15.9375V33H86.793V15.9375H89.7227ZM99.9883 15.9375L93.0508 25.6641H88.8906L88.4922 23.1094H91.4219L96.3906 15.9375H99.9883ZM96.9883 33L91.4688 25.2188L93.3672 22.957L100.516 33H96.9883ZM105.133 31.6172L108.578 20.3203H111.602L106.516 34.9336C106.398 35.2461 106.246 35.5859 106.059 35.9531C105.871 36.3203 105.625 36.668 105.32 36.9961C105.023 37.332 104.652 37.6016 104.207 37.8047C103.762 38.0156 103.223 38.1211 102.59 38.1211C102.34 38.1211 102.098 38.0977 101.863 38.0508C101.637 38.0117 101.422 37.9688 101.219 37.9219L101.207 35.7656C101.285 35.7734 101.379 35.7812 101.488 35.7891C101.605 35.7969 101.699 35.8008 101.77 35.8008C102.238 35.8008 102.629 35.7422 102.941 35.625C103.254 35.5156 103.508 35.3359 103.703 35.0859C103.906 34.8359 104.078 34.5 104.219 34.0781L105.133 31.6172ZM103.188 20.3203L106.199 29.8125L106.703 32.7891L104.746 33.293L100.141 20.3203H103.188ZM114.859 20.3203H117.684L117.543 24.7852C117.504 26.082 117.355 27.1953 117.098 28.125C116.84 29.0547 116.504 29.8398 116.09 30.4805C115.676 31.1133 115.207 31.6328 114.684 32.0391C114.168 32.4453 113.625 32.7656 113.055 33H112.223V30.7734L112.621 30.75C112.957 30.3906 113.246 30.0312 113.488 29.6719C113.738 29.3047 113.949 28.9023 114.121 28.4648C114.293 28.0195 114.426 27.5 114.52 26.9062C114.621 26.3125 114.688 25.6055 114.719 24.7852L114.859 20.3203ZM115.609 20.3203H123.648V33H120.836V22.7109H115.609V20.3203ZM111.578 30.75H125.383V36.7734H122.559V33H114.438V36.7734H111.566L111.578 30.75ZM134.547 30.457V24.4102C134.547 23.957 134.465 23.5664 134.301 23.2383C134.137 22.9102 133.887 22.6562 133.551 22.4766C133.223 22.2969 132.809 22.207 132.309 22.207C131.848 22.207 131.449 22.2852 131.113 22.4414C130.777 22.5977 130.516 22.8086 130.328 23.0742C130.141 23.3398 130.047 23.6406 130.047 23.9766H127.234C127.234 23.4766 127.355 22.9922 127.598 22.5234C127.84 22.0547 128.191 21.6367 128.652 21.2695C129.113 20.9023 129.664 20.6133 130.305 20.4023C130.945 20.1914 131.664 20.0859 132.461 20.0859C133.414 20.0859 134.258 20.2461 134.992 20.5664C135.734 20.8867 136.316 21.3711 136.738 22.0195C137.168 22.6602 137.383 23.4648 137.383 24.4336V30.0703C137.383 30.6484 137.422 31.168 137.5 31.6289C137.586 32.082 137.707 32.4766 137.863 32.8125V33H134.969C134.836 32.6953 134.73 32.3086 134.652 31.8398C134.582 31.3633 134.547 30.9023 134.547 30.457ZM134.957 25.2891L134.98 27.0352H132.953C132.43 27.0352 131.969 27.0859 131.57 27.1875C131.172 27.2812 130.84 27.4219 130.574 27.6094C130.309 27.7969 130.109 28.0234 129.977 28.2891C129.844 28.5547 129.777 28.8555 129.777 29.1914C129.777 29.5273 129.855 29.8359 130.012 30.1172C130.168 30.3906 130.395 30.6055 130.691 30.7617C130.996 30.918 131.363 30.9961 131.793 30.9961C132.371 30.9961 132.875 30.8789 133.305 30.6445C133.742 30.4023 134.086 30.1094 134.336 29.7656C134.586 29.4141 134.719 29.082 134.734 28.7695L135.648 30.0234C135.555 30.3438 135.395 30.6875 135.168 31.0547C134.941 31.4219 134.645 31.7734 134.277 32.1094C133.918 32.4375 133.484 32.707 132.977 32.918C132.477 33.1289 131.898 33.2344 131.242 33.2344C130.414 33.2344 129.676 33.0703 129.027 32.7422C128.379 32.4062 127.871 31.957 127.504 31.3945C127.137 30.8242 126.953 30.1797 126.953 29.4609C126.953 28.7891 127.078 28.1953 127.328 27.6797C127.586 27.1562 127.961 26.7188 128.453 26.3672C128.953 26.0156 129.562 25.75 130.281 25.5703C131 25.3828 131.82 25.2891 132.742 25.2891H134.957ZM151.902 33.2344C150.965 33.2344 150.117 33.082 149.359 32.7773C148.609 32.4648 147.969 32.0312 147.438 31.4766C146.914 30.9219 146.512 30.2695 146.23 29.5195C145.949 28.7695 145.809 27.9609 145.809 27.0938V26.625C145.809 25.6328 145.953 24.7344 146.242 23.9297C146.531 23.125 146.934 22.4375 147.449 21.8672C147.965 21.2891 148.574 20.8477 149.277 20.543C149.98 20.2383 150.742 20.0859 151.562 20.0859C152.469 20.0859 153.262 20.2383 153.941 20.543C154.621 20.8477 155.184 21.2773 155.629 21.832C156.082 22.3789 156.418 23.0312 156.637 23.7891C156.863 24.5469 156.977 25.3828 156.977 26.2969V27.5039H147.18V25.4766H154.188V25.2539C154.172 24.7461 154.07 24.2695 153.883 23.8242C153.703 23.3789 153.426 23.0195 153.051 22.7461C152.676 22.4727 152.176 22.3359 151.551 22.3359C151.082 22.3359 150.664 22.4375 150.297 22.6406C149.938 22.8359 149.637 23.1211 149.395 23.4961C149.152 23.8711 148.965 24.3242 148.832 24.8555C148.707 25.3789 148.645 25.9688 148.645 26.625V27.0938C148.645 27.6484 148.719 28.1641 148.867 28.6406C149.023 29.1094 149.25 29.5195 149.547 29.8711C149.844 30.2227 150.203 30.5 150.625 30.7031C151.047 30.8984 151.527 30.9961 152.066 30.9961C152.746 30.9961 153.352 30.8594 153.883 30.5859C154.414 30.3125 154.875 29.9258 155.266 29.4258L156.754 30.8672C156.48 31.2656 156.125 31.6484 155.688 32.0156C155.25 32.375 154.715 32.668 154.082 32.8945C153.457 33.1211 152.73 33.2344 151.902 33.2344ZM161.477 20.3203H164.301L164.16 24.7852C164.121 26.082 163.973 27.1953 163.715 28.125C163.457 29.0547 163.121 29.8398 162.707 30.4805C162.293 31.1133 161.824 31.6328 161.301 32.0391C160.785 32.4453 160.242 32.7656 159.672 33H158.84V30.7734L159.238 30.75C159.574 30.3906 159.863 30.0312 160.105 29.6719C160.355 29.3047 160.566 28.9023 160.738 28.4648C160.91 28.0195 161.043 27.5 161.137 26.9062C161.238 26.3125 161.305 25.6055 161.336 24.7852L161.477 20.3203ZM162.227 20.3203H170.266V33H167.453V22.7109H162.227V20.3203ZM158.195 30.75H172V36.7734H169.176V33H161.055V36.7734H158.184L158.195 30.75ZM179.605 33.2344C178.668 33.2344 177.82 33.082 177.062 32.7773C176.312 32.4648 175.672 32.0312 175.141 31.4766C174.617 30.9219 174.215 30.2695 173.934 29.5195C173.652 28.7695 173.512 27.9609 173.512 27.0938V26.625C173.512 25.6328 173.656 24.7344 173.945 23.9297C174.234 23.125 174.637 22.4375 175.152 21.8672C175.668 21.2891 176.277 20.8477 176.98 20.543C177.684 20.2383 178.445 20.0859 179.266 20.0859C180.172 20.0859 180.965 20.2383 181.645 20.543C182.324 20.8477 182.887 21.2773 183.332 21.832C183.785 22.3789 184.121 23.0312 184.34 23.7891C184.566 24.5469 184.68 25.3828 184.68 26.2969V27.5039H174.883V25.4766H181.891V25.2539C181.875 24.7461 181.773 24.2695 181.586 23.8242C181.406 23.3789 181.129 23.0195 180.754 22.7461C180.379 22.4727 179.879 22.3359 179.254 22.3359C178.785 22.3359 178.367 22.4375 178 22.6406C177.641 22.8359 177.34 23.1211 177.098 23.4961C176.855 23.8711 176.668 24.3242 176.535 24.8555C176.41 25.3789 176.348 25.9688 176.348 26.625V27.0938C176.348 27.6484 176.422 28.1641 176.57 28.6406C176.727 29.1094 176.953 29.5195 177.25 29.8711C177.547 30.2227 177.906 30.5 178.328 30.7031C178.75 30.8984 179.23 30.9961 179.77 30.9961C180.449 30.9961 181.055 30.8594 181.586 30.5859C182.117 30.3125 182.578 29.9258 182.969 29.4258L184.457 30.8672C184.184 31.2656 183.828 31.6484 183.391 32.0156C182.953 32.375 182.418 32.668 181.785 32.8945C181.16 33.1211 180.434 33.2344 179.605 33.2344ZM192.625 20.3203V33H189.789V20.3203H192.625ZM196.785 20.3203V22.5469H185.699V20.3203H196.785ZM203.395 33.2344C202.457 33.2344 201.609 33.082 200.852 32.7773C200.102 32.4648 199.461 32.0312 198.93 31.4766C198.406 30.9219 198.004 30.2695 197.723 29.5195C197.441 28.7695 197.301 27.9609 197.301 27.0938V26.625C197.301 25.6328 197.445 24.7344 197.734 23.9297C198.023 23.125 198.426 22.4375 198.941 21.8672C199.457 21.2891 200.066 20.8477 200.77 20.543C201.473 20.2383 202.234 20.0859 203.055 20.0859C203.961 20.0859 204.754 20.2383 205.434 20.543C206.113 20.8477 206.676 21.2773 207.121 21.832C207.574 22.3789 207.91 23.0312 208.129 23.7891C208.355 24.5469 208.469 25.3828 208.469 26.2969V27.5039H198.672V25.4766H205.68V25.2539C205.664 24.7461 205.562 24.2695 205.375 23.8242C205.195 23.3789 204.918 23.0195 204.543 22.7461C204.168 22.4727 203.668 22.3359 203.043 22.3359C202.574 22.3359 202.156 22.4375 201.789 22.6406C201.43 22.8359 201.129 23.1211 200.887 23.4961C200.645 23.8711 200.457 24.3242 200.324 24.8555C200.199 25.3789 200.137 25.9688 200.137 26.625V27.0938C200.137 27.6484 200.211 28.1641 200.359 28.6406C200.516 29.1094 200.742 29.5195 201.039 29.8711C201.336 30.2227 201.695 30.5 202.117 30.7031C202.539 30.8984 203.02 30.9961 203.559 30.9961C204.238 30.9961 204.844 30.8594 205.375 30.5859C205.906 30.3125 206.367 29.9258 206.758 29.4258L208.246 30.8672C207.973 31.2656 207.617 31.6484 207.18 32.0156C206.742 32.375 206.207 32.668 205.574 32.8945C204.949 33.1211 204.223 33.2344 203.395 33.2344ZM215.957 27.9727H213.344C213.352 27.2461 213.414 26.6367 213.531 26.1445C213.648 25.6445 213.844 25.1914 214.117 24.7852C214.398 24.3789 214.77 23.9492 215.23 23.4961C215.59 23.1523 215.914 22.8281 216.203 22.5234C216.492 22.2109 216.723 21.8828 216.895 21.5391C217.066 21.1875 217.152 20.7852 217.152 20.332C217.152 19.8398 217.07 19.4219 216.906 19.0781C216.742 18.7344 216.5 18.4727 216.18 18.293C215.867 18.1133 215.477 18.0234 215.008 18.0234C214.617 18.0234 214.25 18.1016 213.906 18.2578C213.562 18.4062 213.285 18.6406 213.074 18.9609C212.863 19.2734 212.75 19.6875 212.734 20.2031H209.91C209.926 19.2188 210.16 18.3906 210.613 17.7188C211.066 17.0469 211.676 16.543 212.441 16.207C213.207 15.8711 214.062 15.7031 215.008 15.7031C216.055 15.7031 216.949 15.8828 217.691 16.2422C218.434 16.5938 219 17.1094 219.391 17.7891C219.789 18.4609 219.988 19.2734 219.988 20.2266C219.988 20.9141 219.852 21.5391 219.578 22.1016C219.305 22.6562 218.949 23.1758 218.512 23.6602C218.074 24.1367 217.602 24.6133 217.094 25.0898C216.656 25.4883 216.359 25.9219 216.203 26.3906C216.047 26.8516 215.965 27.3789 215.957 27.9727ZM213.109 31.6289C213.109 31.207 213.254 30.8516 213.543 30.5625C213.832 30.2656 214.227 30.1172 214.727 30.1172C215.227 30.1172 215.621 30.2656 215.91 30.5625C216.199 30.8516 216.344 31.207 216.344 31.6289C216.344 32.0508 216.199 32.4102 215.91 32.707C215.621 32.9961 215.227 33.1406 214.727 33.1406C214.227 33.1406 213.832 32.9961 213.543 32.707C213.254 32.4102 213.109 32.0508 213.109 31.6289Z" fill="url(#paint0_linear_154_97)"/>
<defs>
<linearGradient id="paint0_linear_154_97" x1="85" y1="39" x2="221" y2="39" gradientUnits="userSpaceOnUse">
<stop stop-color="#6268FF"/>
<stop offset="1" stop-color="#FF4D15"/>
</linearGradient>
</defs>
</svg>
