<svg width="15" height="15" viewBox="0 0 15 15" fill="none" xmlns="http://www.w3.org/2000/svg">
<path fill-rule="evenodd" clip-rule="evenodd" d="M0.707069 0.70707C0.316544 1.09759 0.316544 1.73076 0.707069 2.12128L6.10268 7.5169L0.706959 12.9126C0.316435 13.3031 0.316435 13.9363 0.706959 14.3268C1.09748 14.7174 1.73065 14.7174 2.12117 14.3268L7.5169 8.93111L12.9126 14.3268C13.3031 14.7173 13.9363 14.7173 14.3268 14.3268C14.7173 13.9363 14.7173 13.3031 14.3268 12.9126L8.93111 7.5169L14.3267 2.12131C14.7172 1.73079 14.7172 1.09762 14.3267 0.707099C13.9362 0.316575 13.303 0.316575 12.9125 0.707099L7.5169 6.10269L2.12128 0.70707C1.73076 0.316546 1.09759 0.316546 0.707069 0.70707Z" fill="black"/>
</svg>
