<svg width="25" height="26" viewBox="0 0 25 26" fill="none" xmlns="http://www.w3.org/2000/svg">
<path fill-rule="evenodd" clip-rule="evenodd" d="M17.0449 16.0161C18.5529 14.317 19.4674 12.0879 19.4674 9.64719C19.4674 4.31919 15.1095 0 9.73369 0C4.35792 0 0 4.31919 0 9.64719C0 14.9752 4.35792 19.2944 9.73369 19.2944C11.9302 19.2944 13.9567 18.5733 15.5855 17.357L23.0767 24.7817C23.469 25.1704 24.1441 25.2156 24.5847 24.8825C25.0252 24.5495 25.0644 23.9643 24.6721 23.5755L17.0449 16.0161ZM9.73369 17.3649C5.43307 17.3649 1.94674 13.9096 1.94674 9.64719C1.94674 5.38479 5.43307 1.92944 9.73369 1.92944C14.0343 1.92944 17.5206 5.38479 17.5206 9.64719C17.5206 13.9096 14.0343 17.3649 9.73369 17.3649Z" fill="black"/>
</svg>

