<svg width="11" height="9" viewBox="0 0 11 9" fill="none" xmlns="http://www.w3.org/2000/svg">
<path fill-rule="evenodd" clip-rule="evenodd" d="M6.06058 0.146447C5.86532 -0.0488155 5.54874 -0.0488155 5.35348 0.146447C5.15822 0.341709 5.15822 0.658291 5.35348 0.853553L8.29282 3.79289H0.5C0.223858 3.79289 0 4.01675 0 4.29289C0 4.56904 0.223858 4.79289 0.5 4.79289H8.42114L5.35355 7.86048C5.15829 8.05575 5.15829 8.37233 5.35355 8.56759C5.54882 8.76285 5.8654 8.76285 6.06066 8.56759L9.89257 4.73568C10.0545 4.5738 10.0821 4.32853 9.97559 4.13814C9.94586 4.04671 9.8905 3.96685 9.81799 3.90703C9.80795 3.89489 9.79725 3.88311 9.78588 3.87174L6.06058 0.146447Z" fill="black"/>
</svg>
