<svg width="23" height="23" viewBox="0 0 23 23" fill="none" xmlns="http://www.w3.org/2000/svg">
<path d="M0.374318 7.10434C0.268263 6.09887 1.55084 5.5891 2.16395 6.39304L4.13576 8.97856C5.11202 10.2587 7.12359 9.91952 7.62613 8.39005L10.09 0.8914C10.3913 -0.0257292 11.6887 -0.0257279 11.99 0.891401L14.5424 8.65962C15.0266 10.1332 16.9311 10.5187 17.9502 9.34939L20.715 6.17729C21.3746 5.42044 22.6134 5.99897 22.4565 6.99061L20.7682 17.6614C20.4491 19.6783 18.9356 21.2985 16.945 21.754L12.5621 22.757C11.8622 22.9171 11.1361 22.9247 10.4331 22.7791L5.41569 21.7403C3.28567 21.2993 1.68514 19.5318 1.45697 17.3686L0.374318 7.10434Z" fill="#FF4D15"/>
</svg>
