<svg width="40" height="40" viewBox="0 0 40 40" fill="none" xmlns="http://www.w3.org/2000/svg">
<path fill-rule="evenodd" clip-rule="evenodd" d="M20.0071 8.5336L18.7734 7.81357L12.3289 4.05245C7.93282 1.48679 2.76281 5.22042 2.75781 10.9644C2.75539 13.7459 3.69951 16.4144 5.38197 18.3812L19.9807 35.4475L34.5882 18.475C36.2847 16.5039 37.2397 13.824 37.2421 11.0279C37.2471 5.24854 32.0437 1.48734 27.6232 4.07511L21.2401 7.81181L20.0071 8.5336ZM19.9747 40L3.43187 20.6609C1.23153 18.0886 -0.00320807 14.5989 -4.27644e-05 10.9611C0.00703749 2.82276 7.33216 -2.46722 13.5608 1.16793L20.0052 4.92905L26.3883 1.19234C32.6437 -2.46958 40.0071 2.85286 39.9999 11.0312C39.9968 14.6846 38.7489 18.1862 36.5323 20.7616L19.9747 40Z" fill="white"/>
</svg>
