<svg width="40" height="40" viewBox="0 0 40 40" fill="none" xmlns="http://www.w3.org/2000/svg">
<path fill-rule="evenodd" clip-rule="evenodd" d="M0 20V36V40H4H20C31.0457 40 40 31.0457 40 20C40 8.95431 31.0457 0 20 0C8.95431 0 0 8.95431 0 20ZM4 20V36H20C28.8366 36 36 28.8366 36 20C36 11.1634 28.8366 4 20 4C11.1634 4 4 11.1634 4 20ZM11.8506 16.4863L14.5605 16.501C14.5605 17.0479 14.6533 17.541 14.8389 17.9805C15.0244 18.4199 15.2832 18.7666 15.6152 19.0205C15.9473 19.2646 16.333 19.3867 16.7725 19.3867C17.2021 19.3867 17.6074 19.2744 17.9883 19.0498C18.3691 18.8252 18.7939 18.4883 19.2627 18.0391C19.9463 17.4043 20.6201 16.916 21.2842 16.5742C21.9385 16.2324 22.6758 16.0615 23.4961 16.0615C24.1992 16.0615 24.8438 16.1982 25.4297 16.4717C26.0156 16.7451 26.5234 17.1357 26.9531 17.6436C27.373 18.1416 27.7002 18.7422 27.9346 19.4453C28.1689 20.1387 28.2861 20.9102 28.2861 21.7598H25.5029C25.5029 21.2031 25.415 20.7148 25.2393 20.2949C25.0635 19.875 24.8193 19.5527 24.5068 19.3281C24.1943 19.0938 23.8184 18.9766 23.3789 18.9766C22.9297 18.9766 22.5098 19.0938 22.1191 19.3281C21.7285 19.5527 21.3086 19.8799 20.8594 20.3096C20.1367 20.9736 19.4629 21.4717 18.8379 21.8037C18.2031 22.126 17.4756 22.2871 16.6553 22.2871C15.9521 22.2871 15.3076 22.1455 14.7217 21.8623C14.126 21.5693 13.6182 21.1641 13.1982 20.6465C12.7686 20.1289 12.4365 19.5186 12.2021 18.8154C11.9678 18.1025 11.8506 17.3262 11.8506 16.4863Z" fill="black"/>
</svg>
