<svg width="40" height="40" viewBox="0 0 40 40" fill="none" xmlns="http://www.w3.org/2000/svg">
<path fill-rule="evenodd" clip-rule="evenodd" d="M10 4H30C33.3137 4 36 6.68629 36 10V30C36 33.3137 33.3137 36 30 36H10C6.68629 36 4 33.3137 4 30V10C4 6.68629 6.68629 4 10 4ZM0 10C0 4.47715 4.47715 0 10 0H30C35.5228 0 40 4.47715 40 10V30C40 35.5228 35.5228 40 30 40H10C4.47715 40 0 35.5228 0 30V10ZM27.5859 21.4893V18.3105H21.9902V12.334H18.5771V18.3105H12.9668V21.4893H18.5771V27.8613H21.9902V21.4893H27.5859Z" fill="black"/>
</svg>
