<svg width="40" height="50" viewBox="0 0 40 50" fill="none" xmlns="http://www.w3.org/2000/svg">
<path fill-rule="evenodd" clip-rule="evenodd" d="M30 3H10C6.13401 3 3 6.13401 3 10V40C3 43.866 6.13401 47 10 47H30C33.866 47 37 43.866 37 40V10C37 6.13401 33.866 3 30 3ZM10 0C4.47715 0 0 4.47715 0 10V40C0 45.5228 4.47715 50 10 50H30C35.5228 50 40 45.5228 40 40V10C40 4.47715 35.5228 0 30 0H10ZM5 17.5C5 16.1193 6.11929 15 7.5 15H32.5C33.8807 15 35 16.1193 35 17.5C35 18.8807 33.8807 20 32.5 20H7.5C6.11929 20 5 18.8807 5 17.5ZM7.5 30C6.11929 30 5 31.1193 5 32.5C5 33.8807 6.11929 35 7.5 35H32.5C33.8807 35 35 33.8807 35 32.5C35 31.1193 33.8807 30 32.5 30H7.5Z" fill="black"/>
</svg>
