<svg width="25" height="25" viewBox="0 0 25 25" fill="none" xmlns="http://www.w3.org/2000/svg">
<path fill-rule="evenodd" clip-rule="evenodd" d="M5 2H17.0838C18.7407 2 20.0838 3.34314 20.0838 5V5.72928L15.6021 15.3039C15.1923 16.1793 15.0454 17.154 15.1792 18.11L15.3327 19.2073L16.2609 18.7006C17.198 18.189 17.9473 17.3922 18.3994 16.4266L20.0838 12.8279V20C20.0838 21.6569 18.7407 23 17.0838 23H4.99999C3.34314 23 2 21.6569 2 20V5C2 3.34315 3.34315 2 5 2ZM22.0838 8.55515V20C22.0838 22.7614 19.8453 25 17.0838 25H4.99999C2.23857 25 0 22.7614 0 20V5C0 2.23858 2.23858 0 5 0H17.0838C19.0067 0 20.676 1.08542 21.5126 2.67698L22.1277 1.36279C22.48 0.61014 23.3766 0.283819 24.1303 0.633927C24.8839 0.984036 25.2093 1.878 24.857 2.63064L22.0838 8.55515ZM4.01123 15C3.45895 15 3.01123 15.4477 3.01123 16C3.01123 16.5523 3.45895 17 4.01123 17H13.0532C13.6054 17 14.0532 16.5523 14.0532 16C14.0532 15.4477 13.6054 15 13.0532 15H4.01123ZM3.01123 9C3.01123 8.44771 3.45895 8 4.01123 8H16.0646C16.6169 8 17.0646 8.44771 17.0646 9C17.0646 9.55229 16.6169 10 16.0646 10H4.01123C3.45895 10 3.01123 9.55229 3.01123 9Z" fill="black"/>
</svg>
