<svg width="40" height="50" viewBox="0 0 40 50" fill="none" xmlns="http://www.w3.org/2000/svg">
<mask id="path-1-inside-1_51_116" fill="white">
<path fill-rule="evenodd" clip-rule="evenodd" d="M21 0H0V25V50H40L30.3739 24.6681C35.8922 23.3697 40 18.4146 40 12.5C40 5.59644 34.4036 0 27.5 0H21Z"/>
</mask>
<path d="M0 0V-3C-1.65685 -3 -3 -1.65685 -3 0L0 0ZM0 50H-3C-3 51.6569 -1.65685 53 0 53L0 50ZM40 50V53C40.9863 53 41.9095 52.5152 42.4695 51.7034C43.0295 50.8915 43.1547 49.8563 42.8044 48.9343L40 50ZM30.3739 24.6681L29.6868 21.7478C28.8452 21.9458 28.13 22.4972 27.7244 23.2607C27.3189 24.0242 27.2624 24.9256 27.5695 25.7337L30.3739 24.6681ZM0 3H21V-3H0V3ZM3 25V0H-3V25H3ZM3 50V25H-3V50H3ZM40 47H0V53H40V47ZM27.5695 25.7337L37.1956 51.0657L42.8044 48.9343L33.1782 23.6024L27.5695 25.7337ZM37 12.5C37 16.9912 33.8805 20.7611 29.6868 21.7478L31.0609 27.5883C37.9038 25.9783 43 19.838 43 12.5H37ZM27.5 3C32.7467 3 37 7.25329 37 12.5H43C43 3.93959 36.0604 -3 27.5 -3V3ZM21 3H27.5V-3H21V3Z" fill="url(#paint0_linear_51_116)" mask="url(#path-1-inside-1_51_116)"/>
<defs>
<linearGradient id="paint0_linear_51_116" x1="20" y1="0" x2="20" y2="50" gradientUnits="userSpaceOnUse">
<stop stop-color="#6268FF"/>
<stop offset="1" stop-color="#FF4D15"/>
</linearGradient>
</defs>
</svg>
