<svg width="41" height="49" viewBox="0 0 41 49" fill="none" xmlns="http://www.w3.org/2000/svg">
<path fill-rule="evenodd" clip-rule="evenodd" d="M29.1729 30.5384C32.7495 27.3342 35 22.6799 35 17.5C35 7.83502 27.165 0 17.5 0C7.83502 0 0 7.83502 0 17.5C0 27.165 7.83502 35 17.5 35C20.9064 35 24.0854 34.0268 26.7743 32.3432L37.681 47.9196C38.1562 48.5982 39.0915 48.7631 39.7701 48.288C40.4487 47.8128 40.6137 46.8775 40.1385 46.1989L29.1729 30.5384ZM17.5 32.0392C9.47023 32.0392 2.96082 25.5298 2.96082 17.5C2.96082 9.47023 9.47023 2.96082 17.5 2.96082C25.5298 2.96082 32.0392 9.47023 32.0392 17.5C32.0392 25.5298 25.5298 32.0392 17.5 32.0392Z" fill="black"/>
</svg>
