<svg width="20" height="20" viewBox="0 0 20 20" fill="none" xmlns="http://www.w3.org/2000/svg">
<path fill-rule="evenodd" clip-rule="evenodd" d="M13.6359 12.8108C14.8423 11.4518 15.5739 9.66882 15.5739 7.71654C15.5739 3.45481 12.0876 0 7.78695 0C3.48634 0 0 3.45481 0 7.71654C0 11.9783 3.48634 15.4331 7.78695 15.4331C9.61806 15.4331 11.3016 14.8068 12.6312 13.7585L18.6981 19.7706C18.9717 20.0417 19.4425 20.0732 19.7497 19.841C20.0569 19.6088 20.0842 19.2008 19.8106 18.9297L13.6359 12.8108ZM7.78695 14.1275C4.21396 14.1275 1.31747 11.2572 1.31747 7.71654C1.31747 4.17585 4.21396 1.30556 7.78695 1.30556C11.3599 1.30556 14.2564 4.17585 14.2564 7.71654C14.2564 11.2572 11.3599 14.1275 7.78695 14.1275Z" fill="white"/>
</svg>
