<svg width="10" height="15" viewBox="0 0 10 15" fill="none" xmlns="http://www.w3.org/2000/svg">
<mask id="path-1-inside-1_102_270" fill="white">
<path fill-rule="evenodd" clip-rule="evenodd" d="M1.42857 0H0V15H1.42857V9H10L6.42857 4.5L10 0H1.42857Z"/>
</mask>
<path fill-rule="evenodd" clip-rule="evenodd" d="M1.42857 0H0V15H1.42857V9H10L6.42857 4.5L10 0H1.42857Z" fill="white"/>
<path d="M0 0V-1H-1V0H0ZM0 15H-1V16H0V15ZM1.42857 15V16H2.42857V15H1.42857ZM1.42857 9V8H0.428571V9H1.42857ZM10 9V10H12.0703L10.7833 8.37834L10 9ZM6.42857 4.5L5.64528 3.87834L5.1519 4.5L5.64528 5.12166L6.42857 4.5ZM10 0L10.7833 0.621658L12.0703 -1H10V0ZM0 1H1.42857V-1H0V1ZM1 15V0H-1V15H1ZM1.42857 14H0V16H1.42857V14ZM0.428571 9V15H2.42857V9H0.428571ZM10 8H1.42857V10H10V8ZM5.64528 5.12166L9.21671 9.62166L10.7833 8.37834L7.21186 3.87834L5.64528 5.12166ZM9.21671 -0.621658L5.64528 3.87834L7.21186 5.12166L10.7833 0.621658L9.21671 -0.621658ZM1.42857 1H10V-1H1.42857V1Z" fill="black" mask="url(#path-1-inside-1_102_270)"/>
</svg>
